<svg xmlns="http://www.w3.org/2000/svg" xmlns:xlink="http://www.w3.org/1999/xlink" width="600" zoomAndPan="magnify" viewBox="0 0 450 225" height="300" preserveAspectRatio="xMidYMid meet" version="1.0"><defs><g/><clipPath id="11b1780883"><path d="M 23.789062 88.316406 L 105.539062 88.316406 L 105.539062 170.066406 L 23.789062 170.066406 Z M 23.789062 88.316406 " clip-rule="nonzero"/></clipPath><clipPath id="f503eed7b6"><path d="M 5.972656 43.242188 L 122.972656 43.242188 L 122.972656 106.234375 L 5.972656 106.234375 Z M 5.972656 43.242188 " clip-rule="nonzero"/></clipPath></defs><g clip-path="url(#11b1780883)"><path fill="#353434" d="M 105.554688 129.207031 C 105.554688 151.78125 87.253906 170.085938 64.679688 170.085938 C 42.101562 170.085938 23.800781 151.78125 23.800781 129.207031 C 23.800781 106.632812 42.101562 88.328125 64.679688 88.328125 C 87.253906 88.328125 105.554688 106.632812 105.554688 129.207031 " fill-opacity="1" fill-rule="nonzero"/></g><path fill="#d12331" d="M 64.6875 91.027344 L 64.667969 91.027344 C 43.585938 91.035156 26.5 108.125 26.5 129.207031 C 26.5 150.289062 43.585938 167.378906 64.667969 167.382812 L 64.6875 167.382812 C 85.769531 167.378906 102.859375 150.289062 102.859375 129.207031 C 102.859375 108.125 85.769531 91.035156 64.6875 91.027344 " fill-opacity="1" fill-rule="nonzero"/><path fill="#301011" d="M 72.035156 130.265625 L 71.679688 129.183594 L 71.015625 127.15625 L 76.761719 127.222656 Z M 57.78125 128.894531 L 57.332031 130.273438 L 52.59375 127.222656 L 58.339844 127.15625 Z M 57.207031 141.429688 L 59.144531 135.746094 L 61.816406 137.6875 Z M 63.457031 122.394531 L 64.679688 118.4375 L 66.308594 123.71875 L 63.046875 123.71875 L 63.457031 122.398438 Z M 64.679688 135.378906 L 60.304688 132.332031 L 62.011719 127.0625 L 67.367188 127.136719 L 69.023438 132.210938 L 69.015625 132.214844 L 69.050781 132.332031 Z M 72.148438 141.429688 L 67.539062 137.6875 L 70.214844 135.746094 Z M 78.335938 150.316406 L 65.03125 139.511719 L 67.179688 137.949219 L 73.03125 142.695312 L 71.910156 139.398438 L 71.949219 139.386719 L 68.828125 130.234375 L 67.679688 126.710938 L 62.121094 126.632812 L 62.902344 124.148438 L 66.886719 124.148438 L 64.679688 116.988281 L 63.042969 122.28125 L 60.695312 129.738281 L 59.882812 132.234375 L 59.792969 132.496094 L 64.445312 135.738281 L 62.222656 137.453125 L 58.921875 135.054688 L 56.324219 142.695312 L 60.238281 139.519531 L 67.4375 133.976562 L 69.226562 132.730469 L 70.101562 135.296875 L 66.835938 137.667969 L 64.6875 139.230469 L 64.679688 139.226562 L 51.019531 150.316406 L 56.75 133.464844 L 42.574219 124.332031 L 59.308594 124.148438 L 58.476562 126.730469 L 51.164062 126.808594 L 57.570312 130.9375 L 58.191406 129.023438 L 58.9375 126.722656 L 58.929688 126.722656 L 59.757812 124.144531 L 59.777344 124.144531 L 60.222656 122.699219 L 60.226562 122.691406 L 64.679688 108.277344 L 69.578125 124.144531 L 86.78125 124.332031 L 73.007812 133.203125 L 72.175781 130.6875 L 78.191406 126.808594 L 70.425781 126.722656 L 71.273438 129.320312 L 71.28125 129.347656 L 71.714844 130.664062 L 71.742188 130.738281 L 72.636719 133.445312 L 72.625 133.453125 L 73.230469 135.3125 Z M 74.28125 137.058594 L 73.148438 133.628906 L 88.214844 123.921875 L 69.894531 123.71875 L 64.679688 106.828125 L 59.820312 122.5625 L 59.445312 123.71875 L 41.144531 123.921875 L 56.234375 133.644531 L 50.132812 151.585938 L 64.679688 139.777344 L 79.222656 151.585938 L 74.28125 137.058594 " fill-opacity="1" fill-rule="nonzero"/><path fill="#298c3c" d="M 72.625 133.453125 L 72.636719 133.445312 L 71.742188 130.738281 L 71.714844 130.664062 L 71.28125 129.347656 L 71.273438 129.320312 L 70.425781 126.722656 L 78.191406 126.808594 L 72.175781 130.6875 L 73.007812 133.203125 L 86.78125 124.332031 L 69.578125 124.144531 L 64.679688 108.277344 L 60.226562 122.691406 L 60.222656 122.699219 L 59.777344 124.144531 L 59.757812 124.144531 L 58.929688 126.722656 L 58.9375 126.722656 L 58.191406 129.023438 L 57.570312 130.9375 L 51.164062 126.808594 L 58.476562 126.730469 L 59.308594 124.148438 L 42.574219 124.332031 L 56.75 133.464844 L 51.019531 150.316406 L 64.679688 139.226562 L 64.6875 139.230469 L 66.835938 137.667969 L 70.101562 135.296875 L 69.226562 132.730469 L 67.4375 133.976562 L 60.238281 139.519531 L 56.324219 142.695312 L 58.921875 135.054688 L 62.222656 137.453125 L 64.445312 135.738281 L 59.792969 132.496094 L 59.882812 132.234375 L 60.695312 129.738281 L 63.042969 122.28125 L 64.679688 116.988281 L 66.886719 124.148438 L 62.902344 124.148438 L 62.121094 126.632812 L 67.679688 126.710938 L 68.828125 130.234375 L 71.949219 139.386719 L 71.910156 139.398438 L 73.03125 142.695312 L 67.179688 137.949219 L 65.03125 139.511719 L 78.335938 150.316406 L 73.230469 135.3125 L 72.625 133.453125 " fill-opacity="1" fill-rule="nonzero"/><path fill="#282b2c" d="M 64.660156 167.382812 L 64.640625 167.382812 L 64.660156 167.382812 M 64.707031 167.382812 L 64.710938 167.382812 L 64.707031 167.382812 M 64.632812 167.382812 L 64.613281 167.382812 L 64.632812 167.382812 M 64.734375 167.382812 L 64.742188 167.382812 L 64.734375 167.382812 M 64.601562 167.382812 L 64.574219 167.382812 L 64.601562 167.382812 M 64.765625 167.382812 L 64.773438 167.382812 L 64.765625 167.382812 M 64.570312 167.382812 L 64.546875 167.382812 L 64.570312 167.382812 M 64.796875 167.382812 L 64.804688 167.382812 L 64.796875 167.382812 M 64.542969 167.382812 L 64.511719 167.382812 L 64.542969 167.382812 M 64.828125 167.382812 L 64.835938 167.382812 L 64.828125 167.382812 M 64.511719 167.382812 C 61.765625 167.371094 59.089844 167.070312 56.511719 166.507812 C 59.089844 167.070312 61.765625 167.371094 64.511719 167.382812 M 64.855469 167.382812 L 64.863281 167.382812 L 64.855469 167.382812 M 64.886719 167.382812 L 64.894531 167.382812 L 64.886719 167.382812 M 64.917969 167.382812 L 64.929688 167.382812 L 64.917969 167.382812 M 64.949219 167.382812 L 64.957031 167.382812 L 64.949219 167.382812 M 64.980469 167.382812 L 64.988281 167.382812 L 64.980469 167.382812 M 65.011719 167.382812 L 65.019531 167.382812 L 65.011719 167.382812 M 65.039062 167.382812 L 65.050781 167.382812 L 65.039062 167.382812 M 65.070312 167.382812 L 65.082031 167.382812 L 65.070312 167.382812 M 65.101562 167.382812 L 65.113281 167.382812 L 65.101562 167.382812 M 65.132812 167.382812 L 65.144531 167.382812 L 65.132812 167.382812 M 65.164062 167.382812 L 65.175781 167.382812 L 65.164062 167.382812 M 65.195312 167.382812 L 65.207031 167.382812 L 65.195312 167.382812 M 65.226562 167.382812 L 65.234375 167.382812 L 65.226562 167.382812 M 65.253906 167.382812 L 65.265625 167.382812 L 65.253906 167.382812 M 65.285156 167.382812 L 65.300781 167.382812 L 65.285156 167.382812 M 65.320312 167.378906 L 65.328125 167.378906 L 65.320312 167.378906 M 65.347656 167.378906 L 65.359375 167.378906 L 65.347656 167.378906 M 65.378906 167.378906 L 65.390625 167.378906 L 65.378906 167.378906 M 65.410156 167.378906 L 65.421875 167.378906 L 65.410156 167.378906 M 65.441406 167.375 L 65.449219 167.375 L 65.441406 167.375 M 65.46875 167.375 L 65.484375 167.375 L 65.46875 167.375 M 65.5 167.375 L 65.515625 167.375 L 65.5 167.375 M 65.53125 167.375 L 65.542969 167.375 L 65.53125 167.375 M 65.5625 167.375 L 65.574219 167.375 L 65.5625 167.375 M 65.59375 167.371094 L 65.605469 167.371094 L 65.59375 167.371094 M 65.625 167.371094 L 65.636719 167.371094 L 65.625 167.371094 M 65.652344 167.371094 L 65.667969 167.371094 L 65.652344 167.371094 M 65.6875 167.371094 L 65.699219 167.371094 L 65.6875 167.371094 M 65.71875 167.371094 L 65.726562 167.371094 L 65.71875 167.371094 M 65.746094 167.371094 L 65.761719 167.371094 L 65.746094 167.371094 M 65.777344 167.371094 L 65.789062 167.371094 L 65.777344 167.371094 M 65.808594 167.367188 L 65.820312 167.367188 L 65.808594 167.367188 M 65.839844 167.367188 L 65.851562 167.367188 L 65.839844 167.367188 M 65.867188 167.367188 L 65.882812 167.367188 L 65.867188 167.367188 M 65.898438 167.367188 C 65.902344 167.363281 65.910156 167.363281 65.914062 167.363281 C 65.910156 167.363281 65.902344 167.363281 65.898438 167.367188 M 65.933594 167.363281 L 65.941406 167.363281 L 65.933594 167.363281 M 65.960938 167.363281 C 65.964844 167.363281 65.96875 167.363281 65.976562 167.363281 C 65.96875 167.363281 65.964844 167.363281 65.960938 167.363281 M 65.992188 167.363281 L 66.007812 167.363281 L 65.992188 167.363281 M 66.023438 167.363281 L 66.035156 167.363281 L 66.023438 167.363281 M 66.050781 167.363281 C 66.054688 167.363281 66.0625 167.363281 66.066406 167.359375 C 66.0625 167.363281 66.054688 167.363281 66.050781 167.363281 M 66.082031 167.359375 L 66.097656 167.359375 L 66.082031 167.359375 M 66.113281 167.359375 C 66.117188 167.359375 66.125 167.359375 66.128906 167.355469 C 66.125 167.359375 66.117188 167.359375 66.113281 167.359375 M 66.144531 167.355469 L 66.15625 167.355469 L 66.144531 167.355469 M 66.175781 167.355469 L 66.1875 167.355469 L 66.175781 167.355469 M 66.207031 167.355469 C 66.210938 167.355469 66.214844 167.355469 66.21875 167.355469 C 66.214844 167.355469 66.210938 167.355469 66.207031 167.355469 M 66.238281 167.355469 L 66.25 167.355469 L 66.238281 167.355469 M 66.265625 167.351562 L 66.28125 167.351562 L 66.265625 167.351562 M 66.296875 167.351562 L 66.3125 167.351562 L 66.296875 167.351562 M 66.328125 167.351562 C 66.332031 167.351562 66.335938 167.351562 66.339844 167.347656 C 66.339844 167.347656 66.332031 167.351562 66.328125 167.351562 M 66.359375 167.347656 L 66.371094 167.347656 L 66.359375 167.347656 M 66.386719 167.34375 L 66.40625 167.34375 L 66.386719 167.34375 M 66.417969 167.34375 L 66.433594 167.34375 L 66.417969 167.34375 M 66.449219 167.34375 C 66.453125 167.34375 66.460938 167.34375 66.460938 167.34375 C 66.460938 167.34375 66.453125 167.34375 66.449219 167.34375 M 66.480469 167.34375 L 66.496094 167.34375 L 66.480469 167.34375 M 66.511719 167.34375 L 66.527344 167.34375 L 66.511719 167.34375 M 66.542969 167.339844 L 66.554688 167.339844 L 66.542969 167.339844 M 66.574219 167.335938 L 66.585938 167.335938 L 66.574219 167.335938 M 66.601562 167.335938 L 66.617188 167.335938 L 66.601562 167.335938 M 66.632812 167.335938 C 66.636719 167.335938 66.644531 167.335938 66.648438 167.335938 C 66.644531 167.335938 66.636719 167.335938 66.632812 167.335938 M 66.664062 167.335938 L 66.675781 167.335938 L 66.664062 167.335938 M 66.695312 167.332031 L 66.707031 167.332031 L 66.695312 167.332031 M 66.726562 167.332031 L 66.738281 167.332031 L 66.726562 167.332031 M 66.757812 167.328125 L 66.769531 167.328125 L 66.757812 167.328125 M 66.785156 167.328125 L 66.796875 167.328125 L 66.785156 167.328125 M 66.816406 167.328125 L 66.832031 167.328125 L 66.816406 167.328125 M 66.847656 167.324219 L 66.859375 167.324219 L 66.847656 167.324219 M 66.878906 167.324219 C 66.878906 167.320312 66.886719 167.320312 66.886719 167.320312 C 66.886719 167.320312 66.878906 167.320312 66.878906 167.324219 M 66.90625 167.320312 L 66.921875 167.320312 L 66.90625 167.320312 M 66.9375 167.316406 L 66.953125 167.316406 L 66.9375 167.316406 M 66.96875 167.316406 L 66.980469 167.316406 L 66.96875 167.316406 M 67 167.316406 L 67.011719 167.316406 L 67 167.316406 M 67.03125 167.3125 L 67.042969 167.3125 L 67.03125 167.3125 M 67.0625 167.3125 L 67.074219 167.3125 L 67.0625 167.3125 M 67.09375 167.308594 L 67.101562 167.308594 L 67.09375 167.308594 M 67.121094 167.308594 L 67.132812 167.308594 L 67.121094 167.308594 M 67.152344 167.308594 C 67.15625 167.308594 67.15625 167.308594 67.164062 167.304688 C 67.15625 167.308594 67.15625 167.308594 67.152344 167.308594 M 67.183594 167.304688 L 67.195312 167.304688 L 67.183594 167.304688 M 67.214844 167.300781 L 67.222656 167.300781 L 67.214844 167.300781 M 67.242188 167.300781 C 67.25 167.296875 67.25 167.296875 67.253906 167.296875 C 67.25 167.296875 67.25 167.296875 67.242188 167.300781 M 67.277344 167.296875 C 67.277344 167.296875 67.28125 167.296875 67.285156 167.296875 C 67.28125 167.296875 67.277344 167.296875 67.277344 167.296875 M 67.304688 167.296875 L 67.316406 167.296875 L 67.304688 167.296875 M 67.335938 167.292969 L 67.34375 167.292969 L 67.335938 167.292969 M 67.367188 167.292969 C 67.371094 167.292969 67.371094 167.289062 67.375 167.289062 C 67.371094 167.289062 67.371094 167.289062 67.367188 167.292969 M 67.398438 167.289062 C 67.398438 167.289062 67.402344 167.289062 67.40625 167.289062 C 67.402344 167.289062 67.398438 167.289062 67.398438 167.289062 M 67.425781 167.289062 L 67.4375 167.289062 L 67.425781 167.289062 M 67.457031 167.285156 L 67.464844 167.285156 L 67.457031 167.285156 M 67.488281 167.28125 L 67.496094 167.28125 L 67.488281 167.28125 M 67.519531 167.28125 C 67.519531 167.28125 67.523438 167.28125 67.527344 167.28125 C 67.523438 167.28125 67.519531 167.28125 67.519531 167.28125 M 67.546875 167.28125 C 67.550781 167.277344 67.554688 167.277344 67.558594 167.277344 C 67.554688 167.277344 67.550781 167.277344 67.546875 167.28125 M 67.578125 167.277344 L 67.585938 167.277344 L 67.578125 167.277344 M 67.609375 167.273438 L 67.617188 167.273438 L 67.609375 167.273438 M 67.640625 167.269531 L 67.648438 167.269531 L 67.640625 167.269531 M 67.667969 167.269531 L 67.679688 167.269531 L 67.667969 167.269531 M 67.703125 167.269531 C 67.707031 167.265625 67.707031 167.265625 67.707031 167.265625 C 67.707031 167.265625 67.707031 167.265625 67.703125 167.269531 M 67.734375 167.261719 L 67.738281 167.261719 L 67.734375 167.261719 M 67.761719 167.261719 L 67.769531 167.261719 L 67.761719 167.261719 M 67.792969 167.261719 C 67.796875 167.261719 67.796875 167.261719 67.796875 167.257812 C 67.796875 167.261719 67.792969 167.261719 67.792969 167.261719 M 67.824219 167.257812 L 67.828125 167.257812 L 67.824219 167.257812 M 67.855469 167.253906 L 67.859375 167.253906 L 67.855469 167.253906 M 67.882812 167.25 L 67.890625 167.25 L 67.882812 167.25 M 67.914062 167.25 L 67.917969 167.25 L 67.914062 167.25 M 67.945312 167.246094 L 67.949219 167.246094 L 67.945312 167.246094 M 67.976562 167.242188 L 67.980469 167.242188 L 67.976562 167.242188 M 68.097656 167.234375 L 68.101562 167.234375 L 68.097656 167.234375 M 56.507812 166.507812 C 56.5 166.507812 56.492188 166.503906 56.484375 166.503906 C 56.492188 166.503906 56.5 166.507812 56.507812 166.507812 M 56.480469 166.5 C 56.46875 166.5 56.464844 166.5 56.457031 166.496094 C 56.464844 166.5 56.46875 166.5 56.480469 166.5 M 56.449219 166.496094 C 56.441406 166.492188 56.433594 166.492188 56.429688 166.492188 C 56.433594 166.492188 56.441406 166.492188 56.449219 166.496094 M 56.421875 166.488281 C 56.410156 166.488281 56.40625 166.488281 56.398438 166.484375 C 56.40625 166.488281 56.410156 166.488281 56.421875 166.488281 M 56.386719 166.480469 C 56.382812 166.480469 56.378906 166.480469 56.375 166.480469 C 56.378906 166.480469 56.382812 166.480469 56.386719 166.480469 M 56.351562 166.472656 L 56.347656 166.472656 L 56.351562 166.472656 " fill-opacity="1" fill-rule="nonzero"/><path fill="#961d27" d="M 64.679688 167.382812 L 64.511719 167.382812 C 61.765625 167.371094 59.089844 167.070312 56.511719 166.507812 L 56.507812 166.507812 C 56.5 166.507812 56.492188 166.503906 56.484375 166.503906 L 56.480469 166.5 C 56.46875 166.5 56.464844 166.5 56.457031 166.496094 L 56.449219 166.496094 C 56.441406 166.492188 56.433594 166.492188 56.429688 166.492188 C 56.425781 166.492188 56.421875 166.492188 56.421875 166.492188 C 56.414062 166.488281 56.40625 166.488281 56.398438 166.484375 C 56.394531 166.484375 56.394531 166.480469 56.386719 166.480469 C 56.382812 166.480469 56.378906 166.480469 56.375 166.480469 C 56.367188 166.476562 56.359375 166.476562 56.351562 166.472656 L 56.347656 166.472656 C 46.402344 164.261719 37.921875 158.167969 32.570312 149.871094 C 39.269531 155.683594 48.015625 159.203125 57.582031 159.203125 C 78.664062 159.203125 95.761719 142.109375 95.761719 121.027344 C 95.761719 113.410156 93.53125 106.316406 89.691406 100.363281 C 97.753906 107.359375 102.855469 117.6875 102.855469 129.207031 C 102.855469 149.058594 87.707031 165.367188 68.339844 167.210938 C 68.320312 167.214844 68.300781 167.214844 68.28125 167.214844 C 68.257812 167.21875 68.238281 167.222656 68.21875 167.222656 L 68.1875 167.222656 C 68.179688 167.226562 68.171875 167.226562 68.160156 167.230469 L 68.128906 167.230469 C 68.117188 167.234375 68.109375 167.234375 68.101562 167.234375 L 68.097656 167.234375 C 68.085938 167.234375 68.078125 167.234375 68.066406 167.234375 C 68.058594 167.238281 68.050781 167.238281 68.039062 167.238281 C 68.027344 167.242188 68.019531 167.242188 68.007812 167.242188 C 67.996094 167.242188 67.988281 167.242188 67.980469 167.242188 L 67.976562 167.242188 C 67.964844 167.242188 67.957031 167.246094 67.949219 167.246094 L 67.945312 167.246094 C 67.9375 167.25 67.929688 167.25 67.917969 167.25 L 67.914062 167.25 C 67.90625 167.25 67.898438 167.253906 67.890625 167.253906 L 67.882812 167.253906 C 67.875 167.253906 67.867188 167.253906 67.859375 167.253906 L 67.855469 167.253906 C 67.84375 167.253906 67.835938 167.257812 67.828125 167.257812 L 67.800781 167.257812 C 67.796875 167.261719 67.796875 167.261719 67.792969 167.261719 C 67.785156 167.261719 67.777344 167.261719 67.769531 167.261719 L 67.734375 167.261719 C 67.722656 167.265625 67.714844 167.265625 67.707031 167.265625 C 67.707031 167.265625 67.707031 167.265625 67.703125 167.269531 L 67.667969 167.269531 C 67.664062 167.269531 67.65625 167.269531 67.648438 167.269531 L 67.640625 167.269531 C 67.632812 167.269531 67.625 167.273438 67.617188 167.273438 L 67.609375 167.273438 C 67.601562 167.273438 67.59375 167.273438 67.585938 167.277344 L 67.558594 167.277344 C 67.554688 167.277344 67.550781 167.277344 67.546875 167.28125 L 67.527344 167.28125 C 67.523438 167.28125 67.519531 167.28125 67.519531 167.28125 L 67.488281 167.28125 C 67.480469 167.28125 67.472656 167.285156 67.464844 167.285156 L 67.457031 167.285156 C 67.449219 167.285156 67.445312 167.289062 67.4375 167.289062 L 67.40625 167.289062 C 67.402344 167.289062 67.398438 167.289062 67.398438 167.289062 L 67.375 167.289062 C 67.371094 167.289062 67.371094 167.292969 67.367188 167.292969 L 67.335938 167.292969 C 67.328125 167.292969 67.320312 167.296875 67.316406 167.296875 L 67.285156 167.296875 C 67.28125 167.296875 67.277344 167.296875 67.277344 167.300781 L 67.253906 167.300781 C 67.25 167.300781 67.25 167.300781 67.242188 167.300781 L 67.214844 167.300781 C 67.207031 167.300781 67.199219 167.300781 67.195312 167.304688 L 67.164062 167.304688 C 67.15625 167.308594 67.15625 167.308594 67.152344 167.308594 L 67.121094 167.308594 C 67.113281 167.308594 67.109375 167.308594 67.101562 167.308594 L 67.09375 167.308594 C 67.085938 167.308594 67.078125 167.308594 67.074219 167.3125 L 67.03125 167.3125 C 67.023438 167.3125 67.019531 167.316406 67.011719 167.316406 L 67 167.316406 C 66.992188 167.316406 66.988281 167.316406 66.980469 167.316406 L 66.9375 167.316406 C 66.933594 167.320312 66.925781 167.320312 66.921875 167.320312 L 66.886719 167.320312 C 66.886719 167.320312 66.878906 167.320312 66.878906 167.324219 L 66.847656 167.324219 C 66.839844 167.324219 66.835938 167.328125 66.832031 167.328125 L 66.785156 167.328125 C 66.78125 167.328125 66.777344 167.328125 66.769531 167.328125 L 66.757812 167.328125 C 66.75 167.328125 66.742188 167.328125 66.738281 167.332031 L 66.695312 167.332031 C 66.6875 167.332031 66.683594 167.332031 66.675781 167.335938 L 66.648438 167.335938 C 66.644531 167.335938 66.636719 167.335938 66.632812 167.335938 L 66.574219 167.335938 C 66.566406 167.339844 66.5625 167.339844 66.554688 167.339844 L 66.542969 167.339844 C 66.535156 167.339844 66.53125 167.339844 66.527344 167.34375 L 66.460938 167.34375 C 66.460938 167.34375 66.453125 167.34375 66.449219 167.34375 L 66.386719 167.34375 C 66.382812 167.347656 66.378906 167.347656 66.371094 167.347656 L 66.339844 167.347656 C 66.335938 167.351562 66.332031 167.351562 66.328125 167.351562 L 66.265625 167.351562 C 66.261719 167.351562 66.257812 167.355469 66.25 167.355469 L 66.21875 167.355469 C 66.214844 167.355469 66.210938 167.355469 66.207031 167.355469 L 66.128906 167.355469 C 66.125 167.359375 66.117188 167.359375 66.113281 167.359375 L 66.066406 167.359375 C 66.0625 167.363281 66.054688 167.363281 66.050781 167.363281 L 65.976562 167.363281 C 65.96875 167.363281 65.964844 167.363281 65.960938 167.363281 L 65.914062 167.363281 C 65.910156 167.363281 65.902344 167.363281 65.898438 167.367188 L 65.808594 167.367188 C 65.800781 167.367188 65.796875 167.371094 65.789062 167.371094 L 65.6875 167.371094 C 65.679688 167.375 65.671875 167.375 65.667969 167.375 L 65.59375 167.375 C 65.585938 167.375 65.582031 167.375 65.574219 167.375 L 65.441406 167.375 C 65.433594 167.378906 65.429688 167.378906 65.421875 167.378906 L 65.320312 167.378906 C 65.308594 167.382812 65.304688 167.382812 65.300781 167.382812 L 65.101562 167.382812 C 65.097656 167.382812 65.085938 167.382812 65.082031 167.382812 L 64.679688 167.382812 " fill-opacity="1" fill-rule="nonzero"/><path fill="#dc5b54" d="M 28.113281 134.550781 C 28.078125 134.550781 28.046875 134.535156 28.015625 134.503906 C 26.949219 133.4375 26.773438 114.664062 38.246094 103.195312 C 46.929688 94.507812 59.804688 92.5 66.007812 92.5 C 67.992188 92.5 69.296875 92.703125 69.554688 92.964844 C 70.621094 94.03125 53.570312 95.582031 42.101562 107.050781 C 30.976562 118.175781 29.183594 134.550781 28.113281 134.550781 " fill-opacity="1" fill-rule="nonzero"/><g clip-path="url(#f503eed7b6)"><path fill="#000000" d="M 33.125 76.601562 L 64.472656 87.53125 L 95.820312 76.601562 L 95.820312 95.527344 C 95.820312 101.441406 81.785156 106.234375 64.472656 106.234375 C 47.160156 106.234375 33.125 101.441406 33.125 95.527344 Z M 64.472656 43.242188 L 122.972656 63.640625 L 114.320312 66.65625 L 114.320312 83.417969 L 114.5625 83.492188 C 115.863281 84.039062 116.773438 85.324219 116.773438 86.820312 C 116.773438 87.820312 116.367188 88.722656 115.714844 89.378906 L 115.65625 89.425781 L 117.675781 101.269531 L 108.632812 101.269531 L 110.65625 89.425781 L 110.597656 89.378906 C 109.945312 88.722656 109.539062 87.820312 109.539062 86.820312 C 109.539062 85.324219 110.453125 84.039062 111.75 83.492188 L 111.992188 83.417969 L 111.992188 67.46875 L 64.472656 84.039062 L 5.972656 63.640625 Z M 64.472656 43.242188 " fill-opacity="1" fill-rule="evenodd"/></g><g fill="#808080" fill-opacity="1"><g transform="translate(167.029323, 134.308672)"><g><path d="M 19.203125 -26.171875 L 0 -42.609375 L 0 0.03125 L 10.96875 0.03125 L 11 -19.53125 L 19.203125 -11.421875 L 28.046875 -19.859375 L 28.046875 0 L 39.1875 0.03125 L 39.1875 -42.609375 Z M 19.203125 -26.171875 "/></g></g></g><g fill="#808080" fill-opacity="1"><g transform="translate(207.703523, 134.308672)"><g><path d="M 22.234375 -33.4375 C 20.078125 -33.4375 18.09375 -32.851562 16.28125 -31.6875 C 14.4375 -30.539062 12.984375 -29 11.921875 -27.0625 C 10.847656 -25.144531 10.3125 -23.128906 10.3125 -21.015625 C 10.3125 -18.898438 10.859375 -16.882812 11.953125 -14.96875 C 13.035156 -13.007812 14.476562 -11.457031 16.28125 -10.3125 C 18.09375 -9.144531 20.078125 -8.5625 22.234375 -8.5625 C 24.367188 -8.5625 26.347656 -9.144531 28.171875 -10.3125 C 29.960938 -11.457031 31.414062 -13.007812 32.53125 -14.96875 C 33.59375 -16.90625 34.125 -18.921875 34.125 -21.015625 C 34.125 -23.128906 33.59375 -25.144531 32.53125 -27.0625 C 31.457031 -28.976562 30.007812 -30.519531 28.1875 -31.6875 C 26.332031 -32.851562 24.347656 -33.4375 22.234375 -33.4375 Z M 22.234375 -43.046875 C 26.242188 -43.046875 29.953125 -42.066406 33.359375 -40.109375 C 36.773438 -38.140625 39.472656 -35.472656 41.453125 -32.109375 C 43.441406 -28.710938 44.4375 -25.015625 44.4375 -21.015625 C 44.4375 -17.003906 43.441406 -13.320312 41.453125 -9.96875 C 39.472656 -6.582031 36.773438 -3.910156 33.359375 -1.953125 C 29.953125 0.00390625 26.242188 0.984375 22.234375 0.984375 C 18.242188 0.984375 14.539062 0.00390625 11.125 -1.953125 C 7.675781 -3.929688 4.96875 -6.601562 3 -9.96875 C 1 -13.320312 0 -17.003906 0 -21.015625 C 0 -25.015625 1 -28.710938 3 -32.109375 C 4.96875 -35.453125 7.675781 -38.117188 11.125 -40.109375 C 14.539062 -42.066406 18.242188 -43.046875 22.234375 -43.046875 Z M 22.234375 -43.046875 "/></g></g></g><g fill="#808080" fill-opacity="1"><g transform="translate(253.625056, 134.308672)"><g><path d="M 0.171875 -35.046875 C 1.835938 -37.710938 3.992188 -39.71875 6.640625 -41.0625 C 9.265625 -42.382812 12.148438 -43.046875 15.296875 -43.046875 C 17.765625 -43.046875 20.007812 -42.5625 22.03125 -41.59375 C 24.082031 -40.601562 25.734375 -39.179688 26.984375 -37.328125 C 28.203125 -35.410156 28.8125 -33.207031 28.8125 -30.71875 C 28.8125 -28.976562 28.5 -27.457031 27.875 -26.15625 C 27.257812 -24.90625 26.238281 -23.65625 24.8125 -22.40625 C 26.019531 -21.738281 27.066406 -20.898438 27.953125 -19.890625 C 28.828125 -18.867188 29.507812 -17.710938 30 -16.421875 C 30.476562 -15.160156 30.71875 -13.859375 30.71875 -12.515625 C 30.71875 -10.160156 30.269531 -8.132812 29.375 -6.4375 C 28.425781 -4.695312 27.191406 -3.289062 25.671875 -2.21875 C 24.054688 -1.09375 22.304688 -0.285156 20.421875 0.203125 C 18.472656 0.722656 16.457031 0.984375 14.375 0.984375 C 12.582031 0.984375 10.828125 0.703125 9.109375 0.140625 C 7.347656 -0.410156 5.675781 -1.207031 4.09375 -2.25 C 2.46875 -3.320312 1.101562 -4.5 0 -5.78125 L 6.84375 -12.75 C 7.988281 -11.269531 9.117188 -10.191406 10.234375 -9.515625 C 11.359375 -8.804688 12.71875 -8.453125 14.3125 -8.453125 C 16 -8.453125 17.382812 -8.875 18.46875 -9.71875 C 19.550781 -10.570312 20.09375 -11.867188 20.09375 -13.609375 C 20.09375 -15.347656 19.503906 -16.515625 18.328125 -17.109375 C 17.117188 -17.679688 15.492188 -17.96875 13.453125 -17.96875 L 11.796875 -17.96875 C 11.617188 -17.945312 11.351562 -17.9375 11 -17.9375 L 10.546875 -17.9375 L 10.078125 -17.90625 L 10.078125 -25.265625 C 10.472656 -25.265625 10.957031 -25.273438 11.53125 -25.296875 L 12.296875 -25.296875 L 13.109375 -25.3125 C 14.171875 -25.351562 15.148438 -25.472656 16.046875 -25.671875 C 16.910156 -25.867188 17.640625 -26.296875 18.234375 -26.953125 C 18.785156 -27.566406 19.0625 -28.472656 19.0625 -29.671875 C 19.0625 -31.296875 18.585938 -32.503906 17.640625 -33.296875 C 16.671875 -34.085938 15.425781 -34.484375 13.90625 -34.484375 C 13.195312 -34.484375 12.554688 -34.382812 11.984375 -34.1875 C 11.484375 -34.007812 10.96875 -33.757812 10.4375 -33.4375 C 10.039062 -33.164062 9.503906 -32.734375 8.828125 -32.140625 C 8.691406 -32.015625 8.546875 -31.882812 8.390625 -31.75 C 8.285156 -31.65625 8.15625 -31.535156 8 -31.390625 C 7.6875 -31.117188 7.476562 -30.929688 7.375 -30.828125 Z M 0.171875 -35.046875 "/></g></g></g><g fill="#808080" fill-opacity="1"><g transform="translate(285.820524, 134.308672)"><g><path d="M 19.03125 -15.234375 L 23.1875 -22.703125 L 27.3125 -15.234375 Z M 35.703125 0 L 46.34375 0 L 23.1875 -42.65625 L 0 0 L 10.640625 0 L 14.765625 -7.46875 L 31.578125 -7.46875 Z M 35.703125 0 "/></g></g></g><g fill="#808080" fill-opacity="1"><g transform="translate(333.639396, 134.308672)"><g><path d="M 24.1875 0 L 0 0 L 0 -42.046875 L 10.3125 -42.0625 L 10.3125 -9.609375 L 26.953125 -9.609375 Z M 24.1875 0 "/></g></g></g><g fill="#808080" fill-opacity="1"><g transform="translate(362.069827, 134.308672)"><g><path d="M 0 -42.046875 L 10.3125 -42.046875 L 10.3125 0 L 0 -0.03125 Z M 0 -42.046875 "/></g></g></g><g fill="#808080" fill-opacity="1"><g transform="translate(373.868914, 134.308672)"><g><path d="M 19.203125 -26.171875 L 0 -42.609375 L 0 0.03125 L 10.96875 0.03125 L 11 -19.53125 L 19.203125 -11.421875 L 28.046875 -19.859375 L 28.046875 0 L 39.1875 0.03125 L 39.1875 -42.609375 Z M 19.203125 -26.171875 "/></g></g></g><g fill="#808080" fill-opacity="1"><g transform="translate(414.543114, 134.308672)"><g><path d="M 0 -42.046875 L 10.3125 -42.046875 L 10.3125 0 L 0 -0.03125 Z M 0 -42.046875 "/></g></g></g><path stroke-linecap="butt" transform="matrix(0.75, 0, 0, 0.75, 113.158157, 70.125007)" fill="none" stroke-linejoin="miter" d="M 93.867253 47.093743 L 68.24746 25.1927 L 68.24746 82.041661 L 82.877669 82.041661 L 82.914128 55.94791 L 93.867253 66.781243 L 105.648504 55.515618 L 105.648504 81.999994 L 120.507879 82.041661 L 120.507879 25.1927 Z M 152.13288 37.406242 C 149.25788 37.406242 146.612047 38.187492 144.184963 39.739576 C 141.731838 41.270826 139.799547 43.322909 138.372463 45.906242 C 136.950588 48.463534 136.237046 51.151034 136.237046 53.973951 C 136.237046 56.79166 136.966213 59.47916 138.41413 62.036451 C 139.862047 64.645827 141.78913 66.713535 144.184963 68.244785 C 146.612047 69.796868 149.25788 70.57291 152.13288 70.57291 C 154.976631 70.57291 157.612047 69.796868 160.039131 68.244785 C 162.434964 66.713535 164.372464 64.645827 165.846423 62.036451 C 167.273506 59.453118 167.981839 56.765618 167.981839 53.973951 C 167.981839 51.151034 167.273506 48.463534 165.846423 45.906242 C 164.424548 43.354159 162.502673 41.296867 160.075589 39.739576 C 157.601631 38.187492 154.950589 37.406242 152.13288 37.406242 Z M 152.13288 24.59895 C 157.481839 24.59895 162.424548 25.906242 166.955798 28.515617 C 171.51309 31.151034 175.112048 34.708325 177.747465 39.187492 C 180.408923 43.718742 181.737048 48.651034 181.737048 53.973951 C 181.737048 59.32291 180.408923 64.239577 177.747465 68.718743 C 175.112048 73.223952 171.51309 76.781244 166.955798 79.390619 C 162.424548 81.999994 157.481839 83.302077 152.13288 83.302077 C 146.804755 83.302077 141.867255 81.999994 137.304755 79.390619 C 132.721421 76.755202 129.112046 73.19791 126.476629 68.718743 C 123.815171 64.239577 122.481838 59.32291 122.481838 53.973951 C 122.481838 48.651034 123.815171 43.718742 126.476629 39.187492 C 129.112046 34.734367 132.721421 31.177075 137.304755 28.515617 C 141.867255 25.906242 146.804755 24.59895 152.13288 24.59895 Z M 183.95059 35.276034 C 186.164132 31.718742 189.033924 29.041658 192.565174 27.249992 C 196.070382 25.484367 199.919341 24.59895 204.106841 24.59895 C 207.403716 24.59895 210.3933 25.244783 213.0808 26.53645 C 215.825591 27.854158 218.023508 29.7552 219.684967 32.229159 C 221.320383 34.78645 222.132883 37.72395 222.132883 41.046867 C 222.132883 43.364576 221.716217 45.395826 220.872467 47.135409 C 220.054758 48.791659 218.695383 50.453118 216.79955 52.114576 C 218.403717 53.010409 219.804758 54.130201 220.98705 55.473951 C 222.148508 56.843743 223.059967 58.38541 223.716217 60.098951 C 224.351634 61.786451 224.664134 63.526035 224.664134 65.317702 C 224.664134 68.453118 224.070383 71.156244 222.888092 73.421869 C 221.622467 75.739577 219.976633 77.614577 217.945383 79.036452 C 215.783925 80.536452 213.450591 81.619786 210.950591 82.276036 C 208.341216 82.963536 205.648508 83.302077 202.882883 83.302077 C 200.487049 83.302077 198.138091 82.937494 195.846424 82.197911 C 193.502674 81.458327 191.273507 80.390619 189.164132 78.994786 C 187.002674 77.57291 185.184965 76.005202 183.711007 74.29166 L 192.841216 64.999993 C 194.372466 66.97916 195.872466 68.41666 197.351632 69.312493 C 198.851632 70.26041 200.669341 70.734369 202.804758 70.734369 C 205.044341 70.734369 206.888091 70.16666 208.341216 69.031243 C 209.789133 67.901035 210.513091 66.171868 210.513091 63.85416 C 210.513091 61.536451 209.721425 59.97916 208.143299 59.192701 C 206.533924 58.427076 204.372466 58.04166 201.658924 58.04166 L 199.445382 58.04166 C 199.205799 58.07291 198.851632 58.083326 198.377674 58.083326 L 197.783924 58.083326 L 197.153716 58.124993 L 197.153716 48.317701 C 197.679757 48.317701 198.325591 48.307284 199.091216 48.281243 L 200.117257 48.281243 L 201.184966 48.239576 C 202.606841 48.187493 203.908924 48.031243 205.096424 47.765618 C 206.257883 47.499993 207.231841 46.937493 208.023508 46.067701 C 208.763091 45.249992 209.127675 44.036451 209.127675 42.427076 C 209.127675 40.265617 208.497466 38.661451 207.231841 37.604159 C 205.940174 36.552075 204.278716 36.026034 202.252674 36.026034 C 201.304758 36.026034 200.445383 36.156242 199.679757 36.421867 C 199.023507 36.656242 198.336007 36.989575 197.627674 37.406242 C 197.096424 37.776034 196.388091 38.359367 195.492257 39.145826 C 195.304757 39.307284 195.106841 39.479159 194.898507 39.661451 C 194.768299 39.791659 194.596424 39.953117 194.382882 40.135409 C 193.961007 40.505201 193.684966 40.755201 193.554757 40.885409 Z M 252.018301 61.682285 L 257.549552 51.718743 L 263.044343 61.682285 Z M 274.231844 81.999994 L 288.424553 81.999994 L 257.549552 25.114575 L 226.638092 81.999994 L 240.830801 81.999994 L 246.325593 72.036452 L 268.737052 72.036452 Z M 322.653721 81.999994 L 290.398511 81.999994 L 290.398511 25.9427 L 304.15372 25.906242 L 304.15372 69.192702 L 326.330804 69.192702 Z M 328.304763 25.9427 L 342.059972 25.9427 L 342.059972 81.999994 L 328.304763 81.958327 Z M 369.653723 47.093743 L 344.03393 25.1927 L 344.03393 82.041661 L 358.664139 82.041661 L 358.700597 55.94791 L 369.653723 66.781243 L 381.434973 55.515618 L 381.434973 81.999994 L 396.294349 82.041661 L 396.294349 25.1927 Z M 398.268307 25.9427 L 412.023516 25.9427 L 412.023516 81.999994 L 398.268307 81.958327 Z M 398.268307 25.9427 " stroke="#000000" stroke-width="3.036221" stroke-opacity="1" stroke-miterlimit="4"/></svg>